# xmcd
#
# Track frame offsets: 
#        150
#        28436
#        46090
#        75124
#        94356
#        125709
#        154618
#        182476
#        205498
#        224575
#        247962
#
# Disc length: 3692 seconds
#
# Revision: 0
# Processed by: cddbd v1.5.2PL0 Copyright (c) Steve Scherf et al.
# Submitted via: ExactAudioCopy v1.3
#
DISCID=940e6a0b
DTITLE=Big Pete - Live At Bluesnow!
DYEAR=2016
DGENRE=Blues
TTITLE0=Mean
TTITLE1=Born To Die
TTITLE2=Come On In This House
TTITLE3=This Time No Lies
TTITLE4=6:45
TTITLE5=I've Got My Eyes On You
TTITLE6=Ball And Chain
TTITLE7=Just To Be With You
TTITLE8=Only Time Will Tell
TTITLE9=Rockin' Daddy
TTITLE10=My Backscratcher (bonus track)
EXTD=
EXTT0=
EXTT1=
EXTT2=
EXTT3=
EXTT4=
EXTT5=
EXTT6=
EXTT7=
EXTT8=
EXTT9=
EXTT10=
PLAYORDER=
